<svg width="48" height="48" viewBox="0 0 48 48" fill="none" xmlns="http://www.w3.org/2000/svg">
<rect width="48" height="48" fill="#232425"/>
<path d="M23.5083 16.4286C23.5083 14.362 20.2796 13.2495 19.3617 12.8086C18.7649 12.5225 17.9042 12.2247 17.6194 11.6032C17.3709 11.0604 17.7809 10.2529 18.423 10.1107C20.2714 9.70288 20.4637 13.0045 22.2168 12.8158C24.3183 12.5896 23.1265 9.97116 22.1298 9.21193C20.9371 8.30426 19.0044 8.83635 17.9333 9.64297C16.805 10.4925 16.4957 11.9162 15.3502 12.7335C14.5775 13.2844 13.4864 13.4615 12.5722 13.7485C10.7538 14.3191 8.93983 15.3126 7.96575 16.8739C6.7985 18.7438 7.14405 21.4615 9.10218 22.7939C10.3275 23.6274 12.0752 23.6864 13.51 23.3198C14.5349 23.0578 15.4319 22.4631 15.6931 21.4803C15.9788 20.4081 14.953 18.2484 11.0186 20.705C8.29861 22.4032 7.88776 18.2001 8.63056 17.3434C9.92751 15.8482 11.7133 19.3788 14.2528 18.1599C16.0948 17.2755 11.6036 13.0438 17.9305 13.4024C20.2814 13.5357 18.784 14.7742 18.5037 15.0908C17.6902 16.0101 16.9918 17.0564 16.6009 18.1876C16.3824 18.819 16.1257 19.7705 16.6109 20.3598C17.7256 21.7128 20.4818 18.9406 20.9398 19.6381C21.2545 20.1183 19.1894 21.6243 18.5418 22.083C17.8997 22.5382 17.4553 23.5147 18.6416 23.868C18.7305 23.8948 18.7305 24.0101 18.6416 24.037C17.4553 24.3902 17.8997 25.3676 18.5418 25.8219C19.1894 26.2807 21.2545 27.7875 20.9398 28.2668C20.4827 28.9652 17.7256 26.1921 16.6109 27.5451C16.1257 28.1345 16.3824 29.086 16.6009 29.7173C16.9918 30.8485 17.6902 31.8948 18.5037 32.8141C18.784 33.1307 20.2814 34.3692 17.9305 34.5025C11.6036 34.8611 16.0958 30.6294 14.2528 29.745C11.7133 28.5261 9.92751 32.0567 8.63056 30.5615C7.88776 29.7048 8.29861 25.5018 11.0186 27.2C14.9539 29.6556 15.9788 27.4969 15.6931 26.4246C15.4319 25.4427 14.534 24.8481 13.51 24.5851C12.0761 24.2176 10.3275 24.2766 9.10218 25.111C7.14405 26.4434 6.7985 29.1611 7.96575 31.031C8.93983 32.5915 10.7538 33.5859 12.5722 34.1564C13.4864 34.4435 14.5775 34.6205 15.3502 35.1714C16.4966 35.9887 16.8059 37.4124 17.9333 38.262C19.0035 39.0677 20.9371 39.6007 22.1298 38.693C23.1265 37.9338 24.3183 35.3154 22.2168 35.0891C20.4628 34.9004 20.2714 38.202 18.423 37.7943C17.7809 37.653 17.3709 36.8446 17.6194 36.3017C17.9042 35.6793 18.7658 35.3824 19.3617 35.0963C20.2796 34.6554 23.5093 33.5438 23.5083 31.4763C23.5083 28.8221 17.828 33.3346 17.828 30.236C17.828 25.6833 22.8617 32.4144 22.8617 26.3102C22.8617 25.212 22.5542 24.4278 21.0849 24.0388C20.9897 24.0137 20.9897 23.8921 21.0849 23.8671C22.5542 23.4781 22.8617 22.6938 22.8617 21.5956C22.8617 15.4914 17.828 22.2225 17.828 17.6698C17.828 14.5703 23.5083 19.0837 23.5083 16.4295V16.4286Z" fill="#FFF9F4"/>
<path d="M38.8976 25.11C37.6723 24.2766 35.9246 24.2176 34.4898 24.5842C33.465 24.8462 32.568 25.4409 32.3068 26.4237C32.0211 27.4959 33.0468 29.6556 36.9812 27.199C39.7012 25.5008 40.1121 29.7038 39.3693 30.5605C38.0723 32.0557 36.2865 28.5252 33.747 29.7441C31.905 30.6285 36.3962 34.8601 30.0693 34.5015C27.7184 34.3683 29.2158 33.1298 29.4961 32.8132C30.3096 31.8939 31.008 30.8476 31.3989 29.7164C31.6175 29.085 31.8741 28.1335 31.3889 27.5442C30.2743 26.1912 27.518 28.9634 27.06 28.2659C26.7453 27.7857 28.8104 26.2797 29.458 25.821C30.1001 25.3658 30.5445 24.3893 29.3582 24.036C29.2694 24.0092 29.2694 23.8938 29.3582 23.867C30.5445 23.5138 30.1001 22.5364 29.458 22.0821C28.8104 21.6233 26.7453 20.1165 27.06 19.6372C27.5171 18.9387 30.2743 21.7118 31.3889 20.3588C31.8741 19.7695 31.6175 18.818 31.3989 18.1867C31.008 17.0554 30.3096 16.0092 29.4961 15.0899C29.2158 14.7733 27.7184 13.5347 30.0693 13.4015C36.3962 13.0429 31.9041 17.2745 33.747 18.159C36.2865 19.3778 38.0723 15.8473 39.3693 17.3425C40.1121 18.1992 39.7012 22.4022 36.9812 20.704C33.0459 18.2484 32.0211 20.4071 32.3068 21.4793C32.568 22.4612 33.4659 23.0559 34.4898 23.3188C35.9237 23.6864 37.6723 23.6274 38.8976 22.793C40.8558 21.4606 41.2013 18.7429 40.0341 16.873C39.06 15.3125 37.2461 14.3181 35.4276 13.7476C34.5134 13.4605 33.4223 13.2835 32.6496 12.7326C31.5032 11.9152 31.1939 10.4916 30.0666 9.64203C28.9964 8.8363 27.0627 8.30332 25.8701 9.21099C24.8733 9.97022 23.6816 12.5886 25.783 12.8149C27.5371 13.0035 27.7284 9.70194 29.5768 10.1097C30.2189 10.251 30.6289 11.0594 30.3804 11.6022C30.0956 12.2246 29.234 12.5215 28.6381 12.8077C27.7203 13.2486 24.4906 14.3601 24.4915 16.4277C24.4915 19.0818 30.1718 14.5694 30.1718 17.668C30.1718 22.2207 25.1381 15.4896 25.1381 21.5938C25.1381 22.692 25.4456 23.4762 26.9149 23.8652C27.0101 23.8903 27.0101 24.0119 26.9149 24.0369C25.4456 24.4259 25.1381 25.2102 25.1381 26.3083C25.1381 32.4126 30.1718 25.6815 30.1718 30.2341C30.1718 33.3336 24.4915 28.8203 24.4915 31.4745C24.4915 33.5411 27.7203 34.6536 28.6381 35.0944C29.2349 35.3806 30.0956 35.6784 30.3804 36.2999C30.6289 36.8427 30.2189 37.6502 29.5768 37.7924C27.7284 38.2002 27.5361 34.8986 25.783 35.0873C23.6816 35.3135 24.8733 37.9319 25.8701 38.6912C27.0627 39.5988 28.9964 39.0667 30.0666 38.2601C31.1948 37.4106 31.5041 35.9869 32.6496 35.1696C33.4223 34.6187 34.5134 34.4416 35.4276 34.1546C37.2461 33.584 39.06 32.5905 40.0341 31.0291C41.2013 29.1592 40.8558 26.4416 38.8976 25.1091V25.11Z" fill="#FFF9F4"/>
</svg>
